<mxfile host="app.diagrams.net" modified="2022-12-14T08:34:39.481Z" agent="5.0 (Windows NT 10.0; Win64; x64) AppleWebKit/537.36 (KHTML, like Gecko) Chrome/108.0.0.0 Safari/537.36 Edg/108.0.1462.46" etag="zP7jwAZahLcoOFS8rzi9" version="20.6.2" type="github">
  <diagram id="prtHgNgQTEPvFCAcTncT" name="Page-1">
    <mxGraphModel dx="961" dy="752" grid="1" gridSize="10" guides="1" tooltips="1" connect="1" arrows="1" fold="1" page="1" pageScale="1" pageWidth="827" pageHeight="1169" math="0" shadow="0">
      <root>
        <mxCell id="0" />
        <mxCell id="1" parent="0" />
        <mxCell id="0qFGEBOAv3fDC5r-M1GS-5" value="" style="rounded=1;whiteSpace=wrap;html=1;" vertex="1" parent="1">
          <mxGeometry x="10" y="150" width="120" height="640" as="geometry" />
        </mxCell>
        <mxCell id="0qFGEBOAv3fDC5r-M1GS-10" value="" style="edgeStyle=orthogonalEdgeStyle;rounded=0;orthogonalLoop=1;jettySize=auto;html=1;" edge="1" parent="1" source="0qFGEBOAv3fDC5r-M1GS-6" target="0qFGEBOAv3fDC5r-M1GS-9">
          <mxGeometry relative="1" as="geometry" />
        </mxCell>
        <mxCell id="0qFGEBOAv3fDC5r-M1GS-6" value="研究背景" style="rounded=0;whiteSpace=wrap;html=1;" vertex="1" parent="1">
          <mxGeometry x="30" y="220" width="80" height="40" as="geometry" />
        </mxCell>
        <mxCell id="0qFGEBOAv3fDC5r-M1GS-12" value="" style="edgeStyle=orthogonalEdgeStyle;rounded=0;orthogonalLoop=1;jettySize=auto;html=1;" edge="1" parent="1" source="0qFGEBOAv3fDC5r-M1GS-9" target="0qFGEBOAv3fDC5r-M1GS-11">
          <mxGeometry relative="1" as="geometry" />
        </mxCell>
        <mxCell id="0qFGEBOAv3fDC5r-M1GS-9" value="提出问题" style="rounded=0;whiteSpace=wrap;html=1;" vertex="1" parent="1">
          <mxGeometry x="30" y="340" width="80" height="40" as="geometry" />
        </mxCell>
        <mxCell id="0qFGEBOAv3fDC5r-M1GS-14" value="" style="edgeStyle=orthogonalEdgeStyle;rounded=0;orthogonalLoop=1;jettySize=auto;html=1;" edge="1" parent="1" source="0qFGEBOAv3fDC5r-M1GS-11" target="0qFGEBOAv3fDC5r-M1GS-13">
          <mxGeometry relative="1" as="geometry" />
        </mxCell>
        <mxCell id="0qFGEBOAv3fDC5r-M1GS-11" value="解决问题" style="rounded=0;whiteSpace=wrap;html=1;" vertex="1" parent="1">
          <mxGeometry x="30" y="460" width="80" height="40" as="geometry" />
        </mxCell>
        <mxCell id="0qFGEBOAv3fDC5r-M1GS-18" value="" style="edgeStyle=orthogonalEdgeStyle;rounded=0;orthogonalLoop=1;jettySize=auto;html=1;" edge="1" parent="1" source="0qFGEBOAv3fDC5r-M1GS-13" target="0qFGEBOAv3fDC5r-M1GS-17">
          <mxGeometry relative="1" as="geometry" />
        </mxCell>
        <mxCell id="0qFGEBOAv3fDC5r-M1GS-13" value="实验设计" style="rounded=0;whiteSpace=wrap;html=1;" vertex="1" parent="1">
          <mxGeometry x="30" y="580" width="80" height="40" as="geometry" />
        </mxCell>
        <mxCell id="0qFGEBOAv3fDC5r-M1GS-17" value="系统设计" style="rounded=0;whiteSpace=wrap;html=1;" vertex="1" parent="1">
          <mxGeometry x="30" y="700" width="80" height="40" as="geometry" />
        </mxCell>
        <mxCell id="0qFGEBOAv3fDC5r-M1GS-19" value="" style="shape=mxgraph.arrows.arrow_right;html=1;verticalLabelPosition=bottom;verticalAlign=top;strokeWidth=2;strokeColor=#000000;" vertex="1" parent="1">
          <mxGeometry x="120" y="227.5" width="120" height="25" as="geometry" />
        </mxCell>
        <mxCell id="0qFGEBOAv3fDC5r-M1GS-20" value="" style="rounded=1;whiteSpace=wrap;html=1;" vertex="1" parent="1">
          <mxGeometry x="275" y="150" width="240" height="150" as="geometry" />
        </mxCell>
        <mxCell id="0qFGEBOAv3fDC5r-M1GS-21" value="国内外带钢缺陷检测研究现状" style="rounded=0;whiteSpace=wrap;html=1;" vertex="1" parent="1">
          <mxGeometry x="310" y="170" width="170" height="30" as="geometry" />
        </mxCell>
        <mxCell id="0qFGEBOAv3fDC5r-M1GS-22" value="国内外小目标检测研究现状" style="rounded=0;whiteSpace=wrap;html=1;" vertex="1" parent="1">
          <mxGeometry x="310" y="210" width="170" height="30" as="geometry" />
        </mxCell>
        <mxCell id="0qFGEBOAv3fDC5r-M1GS-23" value="算法轻量化改进方法" style="whiteSpace=wrap;html=1;rounded=0;" vertex="1" parent="1">
          <mxGeometry x="310" y="250" width="170" height="30" as="geometry" />
        </mxCell>
        <mxCell id="0qFGEBOAv3fDC5r-M1GS-25" value="&#xa;&lt;span style=&quot;color: rgb(0, 0, 0); font-size: 21px; font-style: normal; font-variant-ligatures: normal; font-variant-caps: normal; font-weight: 400; letter-spacing: normal; orphans: 2; text-align: center; text-indent: 0px; text-transform: none; widows: 2; word-spacing: 0px; -webkit-text-stroke-width: 0px; background-color: rgb(248, 249, 250); text-decoration-thickness: initial; text-decoration-style: initial; text-decoration-color: initial; float: none; display: inline !important;&quot;&gt;基于改进YOLOv7算法的带钢缺陷检测研究&lt;/span&gt;&#xa;&#xa;" style="rounded=1;whiteSpace=wrap;html=1;fontSize=21;fontFamily=Times New Roman;" vertex="1" parent="1">
          <mxGeometry x="640" y="140" width="120" height="640" as="geometry" />
        </mxCell>
        <mxCell id="0qFGEBOAv3fDC5r-M1GS-40" value="" style="rounded=1;whiteSpace=wrap;html=1;" vertex="1" parent="1">
          <mxGeometry x="250" y="490" width="295" height="160" as="geometry" />
        </mxCell>
        <mxCell id="0qFGEBOAv3fDC5r-M1GS-41" value="基于注意力机制和特征提取的小目标缺陷检测" style="rounded=0;whiteSpace=wrap;html=1;" vertex="1" parent="1">
          <mxGeometry x="275" y="530" width="245" height="30" as="geometry" />
        </mxCell>
        <mxCell id="0qFGEBOAv3fDC5r-M1GS-51" value="" style="shape=mxgraph.arrows.arrow_right;html=1;verticalLabelPosition=bottom;verticalAlign=top;strokeWidth=2;strokeColor=#000000;direction=west;" vertex="1" parent="1">
          <mxGeometry x="120" y="587.5" width="120" height="25" as="geometry" />
        </mxCell>
        <mxCell id="0qFGEBOAv3fDC5r-M1GS-54" value="实验结果对比分析" style="rounded=0;whiteSpace=wrap;html=1;" vertex="1" parent="1">
          <mxGeometry x="287.5" y="680" width="220" height="30" as="geometry" />
        </mxCell>
        <mxCell id="0qFGEBOAv3fDC5r-M1GS-55" value="基于改进YOLOv7算法的轻量化改进" style="rounded=0;whiteSpace=wrap;html=1;" vertex="1" parent="1">
          <mxGeometry x="277.5" y="585" width="242.5" height="30" as="geometry" />
        </mxCell>
        <mxCell id="0qFGEBOAv3fDC5r-M1GS-59" value="" style="rounded=1;whiteSpace=wrap;html=1;fillStyle=hatch;fontFamily=Times New Roman;fontSize=28;" vertex="1" parent="1">
          <mxGeometry x="263.75" y="330" width="262.5" height="130" as="geometry" />
        </mxCell>
        <mxCell id="0qFGEBOAv3fDC5r-M1GS-60" value="微小缺陷在检测时容易误检、漏检" style="rounded=0;whiteSpace=wrap;html=1;fillStyle=hatch;fontFamily=Times New Roman;fontSize=12;" vertex="1" parent="1">
          <mxGeometry x="280" y="350" width="220" height="30" as="geometry" />
        </mxCell>
        <mxCell id="0qFGEBOAv3fDC5r-M1GS-63" value="在实际工业生产中使用移动端进行检测" style="rounded=0;whiteSpace=wrap;html=1;fillStyle=hatch;fontFamily=Times New Roman;fontSize=12;" vertex="1" parent="1">
          <mxGeometry x="278.75" y="400" width="220" height="30" as="geometry" />
        </mxCell>
        <mxCell id="0qFGEBOAv3fDC5r-M1GS-70" value="搭建缺陷检测系统" style="rounded=0;whiteSpace=wrap;html=1;" vertex="1" parent="1">
          <mxGeometry x="288.75" y="740" width="220" height="30" as="geometry" />
        </mxCell>
        <mxCell id="0qFGEBOAv3fDC5r-M1GS-72" value="" style="shape=mxgraph.arrows.arrow_right;html=1;verticalLabelPosition=bottom;verticalAlign=top;strokeWidth=2;strokeColor=#000000;direction=east;" vertex="1" parent="1">
          <mxGeometry x="540" y="225" width="120" height="25" as="geometry" />
        </mxCell>
        <mxCell id="0qFGEBOAv3fDC5r-M1GS-73" value="" style="shape=mxgraph.arrows.arrow_right;html=1;verticalLabelPosition=bottom;verticalAlign=top;strokeWidth=2;strokeColor=#000000;direction=west;" vertex="1" parent="1">
          <mxGeometry x="550" y="585" width="120" height="25" as="geometry" />
        </mxCell>
        <mxCell id="0qFGEBOAv3fDC5r-M1GS-74" value="" style="shape=mxgraph.arrows.arrow_down;html=1;verticalLabelPosition=bottom;verticalAlign=top;strokeWidth=2;strokeColor=#000000;fillStyle=hatch;fontFamily=Times New Roman;fontSize=21;" vertex="1" parent="1">
          <mxGeometry x="369" y="300" width="45" height="30" as="geometry" />
        </mxCell>
        <mxCell id="0qFGEBOAv3fDC5r-M1GS-76" value="" style="shape=mxgraph.arrows.arrow_down;html=1;verticalLabelPosition=bottom;verticalAlign=top;strokeWidth=2;strokeColor=#000000;fillStyle=hatch;fontFamily=Times New Roman;fontSize=21;" vertex="1" parent="1">
          <mxGeometry x="367.5" y="460" width="45" height="30" as="geometry" />
        </mxCell>
        <mxCell id="0qFGEBOAv3fDC5r-M1GS-77" value="" style="shape=mxgraph.arrows.arrow_down;html=1;verticalLabelPosition=bottom;verticalAlign=top;strokeWidth=2;strokeColor=#000000;fillStyle=hatch;fontFamily=Times New Roman;fontSize=21;" vertex="1" parent="1">
          <mxGeometry x="374.5" y="650" width="31" height="30" as="geometry" />
        </mxCell>
        <mxCell id="0qFGEBOAv3fDC5r-M1GS-78" value="" style="shape=mxgraph.arrows.arrow_down;html=1;verticalLabelPosition=bottom;verticalAlign=top;strokeWidth=2;strokeColor=#000000;fillStyle=hatch;fontFamily=Times New Roman;fontSize=21;" vertex="1" parent="1">
          <mxGeometry x="376" y="710" width="31" height="30" as="geometry" />
        </mxCell>
      </root>
    </mxGraphModel>
  </diagram>
</mxfile>
